# Blender v2.79 (sub 0) OBJ File: ''
# www.blender.org
mtllib LaserBeam001.mtl
o Cone_Cone.001
v 0.000000 -8.220000 3.305001
v 0.516138 -8.203780 3.305001
v 1.030239 -8.155183 3.305000
v 1.540275 -8.074401 3.305000
v 2.044231 -7.961754 3.305000
v 2.540120 -7.817685 3.305000
v 3.025984 -7.642763 3.305000
v 3.499906 -7.437679 3.305000
v 3.960016 -7.203241 3.305000
v 4.404497 -6.940376 3.305000
v 4.831595 -6.650119 3.305000
v 5.239626 -6.333619 3.305000
v 5.626978 -5.992122 3.305000
v 5.992123 -5.626976 3.305000
v 6.333620 -5.239625 3.305000
v 6.650121 -4.831594 3.305000
v 6.940377 -4.404495 3.305000
v 7.203242 -3.960014 3.305000
v 7.437679 -3.499904 3.305000
v 7.642764 -3.025982 3.305000
v 7.817686 -2.540118 3.305000
v 7.961754 -2.044228 3.305000
v 8.074402 -1.540272 3.305000
v 8.155183 -1.030236 3.305000
v 8.203780 -0.516135 3.305000
v 8.220000 0.000003 3.305000
v 8.203780 0.516142 3.305000
v 8.155183 1.030243 3.305000
v 8.074401 1.540278 3.305000
v 7.961753 2.044235 3.305000
v 7.817684 2.540124 3.305000
v 7.642762 3.025989 3.305000
v 7.437677 3.499910 3.305000
v 7.203239 3.960020 3.305000
v 6.940373 4.404501 3.305000
v 6.650116 4.831599 3.305000
v 6.333616 5.239630 3.305000
v 5.992118 5.626981 3.305000
v 5.626973 5.992126 3.305000
v 5.239621 6.333623 3.305000
v 4.831590 6.650124 3.305000
v 4.404490 6.940379 3.305000
v 3.960009 7.203244 3.305000
v 3.499899 7.437682 3.305000
v 3.025977 7.642766 3.305000
v 2.540113 7.817687 3.305000
v 2.044224 7.961756 3.305000
v 1.540267 8.074403 3.305000
v 1.030231 8.155184 3.305000
v 0.516130 8.203780 3.305000
v -0.000009 8.220000 3.305000
v -0.516147 8.203779 3.305000
v -1.030248 8.155182 3.305000
v -1.540283 8.074400 3.305000
v -2.044240 7.961751 3.305000
v -2.540129 7.817682 3.305000
v -3.025993 7.642760 3.305000
v -3.499915 7.437674 3.305000
v -3.960024 7.203236 3.305000
v -4.404505 6.940371 3.305000
v -4.831604 6.650114 3.305000
v -5.239634 6.333612 3.305000
v -5.626986 5.992115 3.305000
v -5.992130 5.626969 3.305000
v -6.333625 5.239618 3.305000
v -6.650126 4.831587 3.305000
v -6.940381 4.404488 3.305000
v -7.203246 3.960007 3.305000
v -7.437683 3.499897 3.305000
v -7.642767 3.025974 3.305000
v -7.817688 2.540110 3.305000
v -7.961756 2.044220 3.305000
v -8.074404 1.540264 3.305000
v 0.000000 -0.000000 -3.305000
v -8.155185 1.030228 3.305000
v -8.203780 0.516127 3.305000
v -8.220000 -0.000012 3.305000
v -8.203779 -0.516150 3.305000
v -8.155182 -1.030251 3.305000
v -8.074399 -1.540287 3.305000
v -7.961751 -2.044243 3.305000
v -7.817681 -2.540132 3.305000
v -7.642758 -3.025996 3.305000
v -7.437673 -3.499918 3.305000
v -7.203235 -3.960027 3.305000
v -6.940369 -4.404508 3.305000
v -6.650112 -4.831606 3.305000
v -6.333610 -5.239636 3.305000
v -5.992113 -5.626988 3.305000
v -5.626967 -5.992133 3.305000
v -5.239614 -6.333628 3.305000
v -4.831583 -6.650129 3.305000
v -4.404484 -6.940384 3.305000
v -3.960002 -7.203249 3.305000
v -3.499892 -7.437685 3.305000
v -3.025969 -7.642769 3.305000
v -2.540104 -7.817690 3.305000
v -2.044215 -7.961758 3.305000
v -1.540258 -8.074405 3.305000
v -1.030223 -8.155186 3.305000
v -0.516121 -8.203781 3.305001
vt 0.500000 1.000000
vt 0.500000 0.500000
vt 0.531395 0.999013
vt 0.562667 0.996057
vt 0.593691 0.991143
vt 0.624345 0.984291
vt 0.654509 0.975528
vt 0.684062 0.964888
vt 0.712890 0.952413
vt 0.740877 0.938153
vt 0.767913 0.922164
vt 0.793893 0.904508
vt 0.818712 0.885257
vt 0.842274 0.864484
vt 0.864484 0.842273
vt 0.885257 0.818712
vt 0.904509 0.793892
vt 0.922164 0.767913
vt 0.938153 0.740877
vt 0.952414 0.712890
vt 0.964888 0.684062
vt 0.975528 0.654508
vt 0.984292 0.624345
vt 0.991144 0.593690
vt 0.996057 0.562666
vt 0.999013 0.531395
vt 1.000000 0.500000
vt 0.999013 0.468605
vt 0.996057 0.437333
vt 0.991144 0.406309
vt 0.984292 0.375655
vt 0.975528 0.345491
vt 0.964888 0.315937
vt 0.952413 0.287110
vt 0.938153 0.259123
vt 0.922164 0.232086
vt 0.904508 0.206107
vt 0.885256 0.181288
vt 0.864484 0.157726
vt 0.842273 0.135515
vt 0.818712 0.114743
vt 0.793892 0.095491
vt 0.767913 0.077836
vt 0.740876 0.061846
vt 0.712889 0.047586
vt 0.684062 0.035112
vt 0.654508 0.024472
vt 0.624344 0.015708
vt 0.593690 0.008856
vt 0.562666 0.003943
vt 0.531395 0.000987
vt 0.499999 0.000000
vt 0.468604 0.000987
vt 0.437333 0.003943
vt 0.406309 0.008856
vt 0.375655 0.015709
vt 0.345491 0.024472
vt 0.315937 0.035112
vt 0.287110 0.047587
vt 0.259123 0.061847
vt 0.232086 0.077836
vt 0.206107 0.095492
vt 0.181288 0.114744
vt 0.157726 0.135516
vt 0.135515 0.157727
vt 0.114743 0.181288
vt 0.095491 0.206108
vt 0.077836 0.232087
vt 0.061846 0.259124
vt 0.047586 0.287111
vt 0.035111 0.315938
vt 0.024472 0.345492
vt 0.015708 0.375656
vt 0.008856 0.406310
vt 0.003943 0.437334
vt 0.000987 0.468605
vt 0.000000 0.500001
vt 0.000987 0.531396
vt 0.003943 0.562667
vt 0.008857 0.593691
vt 0.015709 0.624346
vt 0.024472 0.654509
vt 0.035112 0.684063
vt 0.047587 0.712890
vt 0.061847 0.740877
vt 0.077836 0.767914
vt 0.095492 0.793893
vt 0.114744 0.818713
vt 0.135516 0.842274
vt 0.157727 0.864485
vt 0.181289 0.885257
vt 0.206108 0.904509
vt 0.232087 0.922164
vt 0.259124 0.938154
vt 0.287111 0.952414
vt 0.315939 0.964889
vt 0.345492 0.975529
vt 0.375656 0.984292
vt 0.406310 0.991144
vt 0.437334 0.996057
vt 0.468606 0.999013
vn 0.0197 -0.6265 -0.7791
vn 0.0590 -0.6241 -0.7791
vn 0.0981 -0.6191 -0.7791
vn 0.1367 -0.6117 -0.7791
vn 0.1749 -0.6020 -0.7791
vn 0.2123 -0.5898 -0.7791
vn 0.2490 -0.5753 -0.7791
vn 0.2846 -0.5585 -0.7791
vn 0.3191 -0.5396 -0.7791
vn 0.3523 -0.5185 -0.7791
vn 0.3842 -0.4953 -0.7791
vn 0.4145 -0.4702 -0.7791
vn 0.4432 -0.4432 -0.7791
vn 0.4702 -0.4145 -0.7791
vn 0.4953 -0.3842 -0.7791
vn 0.5185 -0.3523 -0.7791
vn 0.5396 -0.3191 -0.7791
vn 0.5585 -0.2846 -0.7791
vn 0.5753 -0.2490 -0.7791
vn 0.5898 -0.2123 -0.7791
vn 0.6020 -0.1749 -0.7791
vn 0.6117 -0.1367 -0.7791
vn 0.6191 -0.0981 -0.7791
vn 0.6241 -0.0590 -0.7791
vn 0.6265 -0.0197 -0.7791
vn 0.6265 0.0197 -0.7791
vn 0.6241 0.0590 -0.7791
vn 0.6191 0.0981 -0.7791
vn 0.6117 0.1367 -0.7791
vn 0.6020 0.1749 -0.7791
vn 0.5898 0.2123 -0.7791
vn 0.5753 0.2490 -0.7791
vn 0.5585 0.2846 -0.7791
vn 0.5396 0.3191 -0.7791
vn 0.5185 0.3523 -0.7791
vn 0.4953 0.3842 -0.7791
vn 0.4702 0.4145 -0.7791
vn 0.4432 0.4432 -0.7791
vn 0.4145 0.4702 -0.7791
vn 0.3842 0.4953 -0.7791
vn 0.3523 0.5185 -0.7791
vn 0.3191 0.5396 -0.7791
vn 0.2846 0.5585 -0.7791
vn 0.2490 0.5753 -0.7791
vn 0.2123 0.5898 -0.7791
vn 0.1749 0.6020 -0.7791
vn 0.1367 0.6117 -0.7791
vn 0.0981 0.6191 -0.7791
vn 0.0590 0.6241 -0.7791
vn 0.0197 0.6265 -0.7791
vn -0.0197 0.6265 -0.7791
vn -0.0590 0.6241 -0.7791
vn -0.0981 0.6191 -0.7791
vn -0.1367 0.6117 -0.7791
vn -0.1749 0.6020 -0.7791
vn -0.2123 0.5898 -0.7791
vn -0.2490 0.5753 -0.7791
vn -0.2846 0.5585 -0.7791
vn -0.3191 0.5396 -0.7791
vn -0.3523 0.5185 -0.7791
vn -0.3842 0.4953 -0.7791
vn -0.4145 0.4702 -0.7791
vn -0.4432 0.4432 -0.7791
vn -0.4702 0.4145 -0.7791
vn -0.4953 0.3842 -0.7791
vn -0.5185 0.3523 -0.7791
vn -0.5396 0.3191 -0.7791
vn -0.5585 0.2846 -0.7791
vn -0.5753 0.2490 -0.7791
vn -0.5898 0.2123 -0.7791
vn -0.6020 0.1749 -0.7791
vn -0.6117 0.1367 -0.7791
vn -0.6191 0.0981 -0.7791
vn -0.6241 0.0590 -0.7791
vn -0.6265 0.0197 -0.7791
vn -0.6265 -0.0197 -0.7791
vn -0.6241 -0.0590 -0.7791
vn -0.6191 -0.0981 -0.7791
vn -0.6117 -0.1367 -0.7791
vn -0.6020 -0.1749 -0.7791
vn -0.5898 -0.2123 -0.7791
vn -0.5753 -0.2490 -0.7791
vn -0.5585 -0.2846 -0.7791
vn -0.5396 -0.3191 -0.7791
vn -0.5185 -0.3523 -0.7791
vn -0.4953 -0.3842 -0.7791
vn -0.4702 -0.4145 -0.7791
vn -0.4432 -0.4432 -0.7791
vn -0.4145 -0.4702 -0.7791
vn -0.3842 -0.4953 -0.7791
vn -0.3523 -0.5185 -0.7791
vn -0.3191 -0.5396 -0.7791
vn -0.2846 -0.5585 -0.7791
vn -0.2489 -0.5753 -0.7791
vn -0.2123 -0.5898 -0.7791
vn -0.1749 -0.6020 -0.7791
vn -0.1367 -0.6117 -0.7791
vn -0.0981 -0.6191 -0.7791
vn -0.0590 -0.6241 -0.7791
vn -0.0197 -0.6265 -0.7791
usemtl None
s off
f 1/1/1 74/2/1 2/3/1
f 2/3/2 74/2/2 3/4/2
f 3/4/3 74/2/3 4/5/3
f 4/5/4 74/2/4 5/6/4
f 5/6/5 74/2/5 6/7/5
f 6/7/6 74/2/6 7/8/6
f 7/8/7 74/2/7 8/9/7
f 8/9/8 74/2/8 9/10/8
f 9/10/9 74/2/9 10/11/9
f 10/11/10 74/2/10 11/12/10
f 11/12/11 74/2/11 12/13/11
f 12/13/12 74/2/12 13/14/12
f 13/14/13 74/2/13 14/15/13
f 14/15/14 74/2/14 15/16/14
f 15/16/15 74/2/15 16/17/15
f 16/17/16 74/2/16 17/18/16
f 17/18/17 74/2/17 18/19/17
f 18/19/18 74/2/18 19/20/18
f 19/20/19 74/2/19 20/21/19
f 20/21/20 74/2/20 21/22/20
f 21/22/21 74/2/21 22/23/21
f 22/23/22 74/2/22 23/24/22
f 23/24/23 74/2/23 24/25/23
f 24/25/24 74/2/24 25/26/24
f 25/26/25 74/2/25 26/27/25
f 26/27/26 74/2/26 27/28/26
f 27/28/27 74/2/27 28/29/27
f 28/29/28 74/2/28 29/30/28
f 29/30/29 74/2/29 30/31/29
f 30/31/30 74/2/30 31/32/30
f 31/32/31 74/2/31 32/33/31
f 32/33/32 74/2/32 33/34/32
f 33/34/33 74/2/33 34/35/33
f 34/35/34 74/2/34 35/36/34
f 35/36/35 74/2/35 36/37/35
f 36/37/36 74/2/36 37/38/36
f 37/38/37 74/2/37 38/39/37
f 38/39/38 74/2/38 39/40/38
f 39/40/39 74/2/39 40/41/39
f 40/41/40 74/2/40 41/42/40
f 41/42/41 74/2/41 42/43/41
f 42/43/42 74/2/42 43/44/42
f 43/44/43 74/2/43 44/45/43
f 44/45/44 74/2/44 45/46/44
f 45/46/45 74/2/45 46/47/45
f 46/47/46 74/2/46 47/48/46
f 47/48/47 74/2/47 48/49/47
f 48/49/48 74/2/48 49/50/48
f 49/50/49 74/2/49 50/51/49
f 50/51/50 74/2/50 51/52/50
f 51/52/51 74/2/51 52/53/51
f 52/53/52 74/2/52 53/54/52
f 53/54/53 74/2/53 54/55/53
f 54/55/54 74/2/54 55/56/54
f 55/56/55 74/2/55 56/57/55
f 56/57/56 74/2/56 57/58/56
f 57/58/57 74/2/57 58/59/57
f 58/59/58 74/2/58 59/60/58
f 59/60/59 74/2/59 60/61/59
f 60/61/60 74/2/60 61/62/60
f 61/62/61 74/2/61 62/63/61
f 62/63/62 74/2/62 63/64/62
f 63/64/63 74/2/63 64/65/63
f 64/65/64 74/2/64 65/66/64
f 65/66/65 74/2/65 66/67/65
f 66/67/66 74/2/66 67/68/66
f 67/68/67 74/2/67 68/69/67
f 68/69/68 74/2/68 69/70/68
f 69/70/69 74/2/69 70/71/69
f 70/71/70 74/2/70 71/72/70
f 71/72/71 74/2/71 72/73/71
f 72/73/72 74/2/72 73/74/72
f 73/74/73 74/2/73 75/75/73
f 75/75/74 74/2/74 76/76/74
f 76/76/75 74/2/75 77/77/75
f 77/77/76 74/2/76 78/78/76
f 78/78/77 74/2/77 79/79/77
f 79/79/78 74/2/78 80/80/78
f 80/80/79 74/2/79 81/81/79
f 81/81/80 74/2/80 82/82/80
f 82/82/81 74/2/81 83/83/81
f 83/83/82 74/2/82 84/84/82
f 84/84/83 74/2/83 85/85/83
f 85/85/84 74/2/84 86/86/84
f 86/86/85 74/2/85 87/87/85
f 87/87/86 74/2/86 88/88/86
f 88/88/87 74/2/87 89/89/87
f 89/89/88 74/2/88 90/90/88
f 90/90/89 74/2/89 91/91/89
f 91/91/90 74/2/90 92/92/90
f 92/92/91 74/2/91 93/93/91
f 93/93/92 74/2/92 94/94/92
f 94/94/93 74/2/93 95/95/93
f 95/95/94 74/2/94 96/96/94
f 96/96/95 74/2/95 97/97/95
f 97/97/96 74/2/96 98/98/96
f 98/98/97 74/2/97 99/99/97
f 99/99/98 74/2/98 100/100/98
f 100/100/99 74/2/99 101/101/99
f 101/101/100 74/2/100 1/1/100
