# Blender v2.79 (sub 0) OBJ File: ''
# www.blender.org
mtllib SpotLightRay3.mtl
o Cone
v 0.000000 -0.930000 -0.070000
v 0.002199 -0.930000 -0.069965
v 0.004395 -0.930000 -0.069862
v 0.006588 -0.930000 -0.069689
v 0.008773 -0.930000 -0.069448
v 0.010950 -0.930000 -0.069138
v 0.013117 -0.930000 -0.068760
v 0.015270 -0.930000 -0.068314
v 0.017408 -0.930000 -0.067801
v 0.019529 -0.930000 -0.067221
v 0.021631 -0.930000 -0.066574
v 0.023712 -0.930000 -0.065862
v 0.025769 -0.930000 -0.065084
v 0.027800 -0.930000 -0.064243
v 0.029805 -0.930000 -0.063338
v 0.031779 -0.930000 -0.062370
v 0.033723 -0.930000 -0.061341
v 0.035633 -0.930000 -0.060252
v 0.037508 -0.930000 -0.059103
v 0.039346 -0.930000 -0.057896
v 0.041145 -0.930000 -0.056631
v 0.042903 -0.930000 -0.055311
v 0.044620 -0.930000 -0.053936
v 0.046292 -0.930000 -0.052508
v 0.047918 -0.930000 -0.051028
v 0.049497 -0.930000 -0.049497
v 0.051028 -0.930000 -0.047918
v 0.052508 -0.930000 -0.046292
v 0.053936 -0.930000 -0.044620
v 0.055311 -0.930000 -0.042903
v 0.056631 -0.930000 -0.041145
v 0.057896 -0.930000 -0.039346
v 0.059103 -0.930000 -0.037508
v 0.060252 -0.930000 -0.035633
v 0.061341 -0.930000 -0.033723
v 0.062370 -0.930000 -0.031779
v 0.063338 -0.930000 -0.029805
v 0.064243 -0.930000 -0.027800
v 0.065084 -0.930000 -0.025769
v 0.065862 -0.930000 -0.023712
v 0.066574 -0.930000 -0.021631
v 0.067221 -0.930000 -0.019529
v 0.067801 -0.930000 -0.017408
v 0.068314 -0.930000 -0.015270
v 0.068760 -0.930000 -0.013117
v 0.069138 -0.930000 -0.010950
v 0.069448 -0.930000 -0.008773
v 0.069689 -0.930000 -0.006588
v 0.069862 -0.930000 -0.004395
v 0.069965 -0.930000 -0.002199
v 0.070000 -0.930000 0.000000
v 0.069965 -0.930000 0.002199
v 0.069862 -0.930000 0.004395
v 0.069689 -0.930000 0.006588
v 0.069448 -0.930000 0.008773
v 0.069138 -0.930000 0.010950
v 0.068760 -0.930000 0.013117
v 0.068314 -0.930000 0.015270
v 0.067801 -0.930000 0.017408
v 0.067221 -0.930000 0.019529
v 0.066574 -0.930000 0.021631
v 0.065862 -0.930000 0.023712
v 0.065084 -0.930000 0.025769
v 0.064243 -0.930000 0.027800
v 0.063338 -0.930000 0.029805
v 0.062370 -0.930000 0.031779
v 0.061341 -0.930000 0.033723
v 0.060252 -0.930000 0.035633
v 0.059103 -0.930000 0.037508
v 0.057896 -0.930000 0.039346
v 0.056631 -0.930000 0.041145
v 0.055311 -0.930000 0.042904
v 0.053936 -0.930000 0.044620
v 0.052508 -0.930000 0.046292
v 0.051028 -0.930000 0.047918
v 0.049497 -0.930000 0.049498
v 0.047918 -0.930000 0.051028
v 0.046292 -0.930000 0.052508
v 0.044620 -0.930000 0.053936
v 0.042903 -0.930000 0.055311
v 0.041145 -0.930000 0.056631
v 0.039346 -0.930000 0.057896
v 0.037508 -0.930000 0.059103
v 0.035633 -0.930000 0.060252
v 0.033723 -0.930000 0.061341
v 0.031779 -0.930000 0.062370
v 0.029804 -0.930000 0.063338
v 0.027800 -0.930000 0.064243
v 0.025769 -0.930000 0.065084
v 0.023712 -0.930000 0.065862
v 0.021631 -0.930000 0.066574
v 0.019529 -0.930000 0.067221
v 0.017408 -0.930000 0.067801
v 0.015270 -0.930000 0.068314
v 0.013117 -0.930000 0.068760
v 0.010950 -0.930000 0.069138
v 0.008773 -0.930000 0.069448
v 0.006588 -0.930000 0.069689
v 0.004395 -0.930000 0.069862
v 0.002199 -0.930000 0.069965
v -0.000000 -0.930000 0.070000
v -0.002199 -0.930000 0.069965
v -0.004395 -0.930000 0.069862
v -0.006588 -0.930000 0.069689
v -0.008773 -0.930000 0.069448
v -0.010950 -0.930000 0.069138
v -0.013117 -0.930000 0.068760
v -0.015270 -0.930000 0.068314
v -0.017408 -0.930000 0.067801
v -0.019529 -0.930000 0.067221
v -0.021631 -0.930000 0.066574
v -0.023712 -0.930000 0.065862
v -0.025769 -0.930000 0.065084
v -0.027800 -0.930000 0.064243
v -0.029805 -0.930000 0.063338
v -0.031779 -0.930000 0.062370
v -0.033723 -0.930000 0.061341
v -0.035633 -0.930000 0.060252
v -0.037508 -0.930000 0.059103
v -0.039346 -0.930000 0.057896
v -0.041145 -0.930000 0.056631
v -0.042904 -0.930000 0.055311
v -0.044620 -0.930000 0.053936
v -0.046292 -0.930000 0.052508
v -0.047918 -0.930000 0.051028
v -0.049498 -0.930000 0.049497
v -0.051028 -0.930000 0.047918
v -0.052508 -0.930000 0.046292
v -0.053936 -0.930000 0.044620
v -0.055311 -0.930000 0.042903
v -0.056631 -0.930000 0.041145
v -0.057896 -0.930000 0.039346
v -0.059103 -0.930000 0.037508
v -0.060252 -0.930000 0.035633
v -0.061342 -0.930000 0.033723
v -0.062370 -0.930000 0.031779
v 0.000000 0.930000 0.000000
v -0.063338 -0.930000 0.029804
v -0.064243 -0.930000 0.027800
v -0.065084 -0.930000 0.025769
v -0.065862 -0.930000 0.023712
v -0.066574 -0.930000 0.021631
v -0.067221 -0.930000 0.019529
v -0.067801 -0.930000 0.017408
v -0.068314 -0.930000 0.015270
v -0.068760 -0.930000 0.013117
v -0.069138 -0.930000 0.010950
v -0.069448 -0.930000 0.008773
v -0.069689 -0.930000 0.006587
v -0.069862 -0.930000 0.004395
v -0.069965 -0.930000 0.002199
v -0.070000 -0.930000 -0.000000
v -0.069965 -0.930000 -0.002199
v -0.069862 -0.930000 -0.004395
v -0.069689 -0.930000 -0.006588
v -0.069448 -0.930000 -0.008773
v -0.069138 -0.930000 -0.010951
v -0.068760 -0.930000 -0.013117
v -0.068314 -0.930000 -0.015270
v -0.067801 -0.930000 -0.017408
v -0.067221 -0.930000 -0.019529
v -0.066574 -0.930000 -0.021631
v -0.065862 -0.930000 -0.023712
v -0.065084 -0.930000 -0.025769
v -0.064243 -0.930000 -0.027800
v -0.063338 -0.930000 -0.029805
v -0.062370 -0.930000 -0.031779
v -0.061341 -0.930000 -0.033723
v -0.060252 -0.930000 -0.035633
v -0.059103 -0.930000 -0.037508
v -0.057896 -0.930000 -0.039346
v -0.056631 -0.930000 -0.041145
v -0.055311 -0.930000 -0.042904
v -0.053936 -0.930000 -0.044620
v -0.052508 -0.930000 -0.046292
v -0.051028 -0.930000 -0.047918
v -0.049497 -0.930000 -0.049498
v -0.047918 -0.930000 -0.051028
v -0.046292 -0.930000 -0.052508
v -0.044620 -0.930000 -0.053936
v -0.042903 -0.930000 -0.055311
v -0.041145 -0.930000 -0.056631
v -0.039346 -0.930000 -0.057896
v -0.037508 -0.930000 -0.059103
v -0.035633 -0.930000 -0.060252
v -0.033723 -0.930000 -0.061342
v -0.031779 -0.930000 -0.062371
v -0.029804 -0.930000 -0.063338
v -0.027800 -0.930000 -0.064243
v -0.025769 -0.930000 -0.065084
v -0.023712 -0.930000 -0.065862
v -0.021631 -0.930000 -0.066574
v -0.019529 -0.930000 -0.067221
v -0.017408 -0.930000 -0.067801
v -0.015270 -0.930000 -0.068314
v -0.013117 -0.930000 -0.068760
v -0.010950 -0.930000 -0.069138
v -0.008773 -0.930000 -0.069448
v -0.006587 -0.930000 -0.069689
v -0.004395 -0.930000 -0.069862
v -0.002199 -0.930000 -0.069965
vt 0.500000 1.000000
vt 0.500000 0.500000
vt 0.515705 0.999754
vt 0.531395 0.999014
vt 0.547054 0.997781
vt 0.562667 0.996057
vt 0.578217 0.993845
vt 0.593691 0.991143
vt 0.609071 0.987959
vt 0.624345 0.984292
vt 0.639495 0.980147
vt 0.654509 0.975529
vt 0.669369 0.970441
vt 0.684062 0.964888
vt 0.698574 0.958877
vt 0.712890 0.952414
vt 0.726995 0.945503
vt 0.740877 0.938154
vt 0.754521 0.930371
vt 0.767913 0.922164
vt 0.781042 0.913540
vt 0.793893 0.904508
vt 0.806454 0.895078
vt 0.818712 0.885257
vt 0.830656 0.875056
vt 0.842274 0.864484
vt 0.853554 0.853554
vt 0.864484 0.842273
vt 0.875056 0.830656
vt 0.885257 0.818712
vt 0.895078 0.806454
vt 0.904508 0.793893
vt 0.913540 0.781042
vt 0.922164 0.767913
vt 0.930371 0.754521
vt 0.938154 0.740876
vt 0.945503 0.726995
vt 0.952414 0.712890
vt 0.958877 0.698574
vt 0.964888 0.684062
vt 0.970441 0.669369
vt 0.975529 0.654509
vt 0.980147 0.639495
vt 0.984292 0.624345
vt 0.987959 0.609071
vt 0.991144 0.593691
vt 0.993845 0.578217
vt 0.996057 0.562667
vt 0.997781 0.547054
vt 0.999014 0.531395
vt 0.999754 0.515705
vt 1.000000 0.500000
vt 0.999754 0.484294
vt 0.999014 0.468604
vt 0.997781 0.452946
vt 0.996057 0.437333
vt 0.993845 0.421782
vt 0.991144 0.406309
vt 0.987959 0.390928
vt 0.984292 0.375655
vt 0.980147 0.360504
vt 0.975529 0.345491
vt 0.970441 0.330631
vt 0.964888 0.315937
vt 0.958877 0.301425
vt 0.952413 0.287110
vt 0.945503 0.273005
vt 0.938153 0.259123
vt 0.930371 0.245479
vt 0.922164 0.232086
vt 0.913540 0.218958
vt 0.904508 0.206107
vt 0.895077 0.193546
vt 0.885257 0.181287
vt 0.875056 0.169344
vt 0.864484 0.157726
vt 0.853554 0.146446
vt 0.842273 0.135515
vt 0.830656 0.124944
vt 0.818712 0.114743
vt 0.806454 0.104922
vt 0.793892 0.095491
vt 0.781042 0.086459
vt 0.767913 0.077836
vt 0.754520 0.069629
vt 0.740876 0.061846
vt 0.726995 0.054496
vt 0.712889 0.047586
vt 0.698574 0.041122
vt 0.684062 0.035111
vt 0.669369 0.029559
vt 0.654508 0.024471
vt 0.639495 0.019853
vt 0.624345 0.015708
vt 0.609071 0.012041
vt 0.593691 0.008856
vt 0.578217 0.006155
vt 0.562666 0.003942
vt 0.547053 0.002219
vt 0.531395 0.000986
vt 0.515705 0.000246
vt 0.500000 0.000000
vt 0.484294 0.000246
vt 0.468604 0.000987
vt 0.452945 0.002219
vt 0.437332 0.003943
vt 0.421782 0.006155
vt 0.406309 0.008857
vt 0.390928 0.012041
vt 0.375655 0.015708
vt 0.360504 0.019853
vt 0.345491 0.024471
vt 0.330630 0.029560
vt 0.315937 0.035112
vt 0.301425 0.041123
vt 0.287110 0.047587
vt 0.273004 0.054497
vt 0.259123 0.061847
vt 0.245479 0.069629
vt 0.232086 0.077836
vt 0.218958 0.086460
vt 0.206107 0.095492
vt 0.193546 0.104923
vt 0.181287 0.114744
vt 0.169344 0.124945
vt 0.157726 0.135516
vt 0.146446 0.146447
vt 0.135515 0.157727
vt 0.124944 0.169344
vt 0.114743 0.181288
vt 0.104922 0.193547
vt 0.095491 0.206108
vt 0.086459 0.218959
vt 0.077835 0.232087
vt 0.069629 0.245480
vt 0.061846 0.259124
vt 0.054496 0.273005
vt 0.047586 0.287111
vt 0.041122 0.301427
vt 0.035111 0.315938
vt 0.029559 0.330632
vt 0.024471 0.345492
vt 0.019853 0.360505
vt 0.015708 0.375656
vt 0.012041 0.390929
vt 0.008856 0.406310
vt 0.006155 0.421784
vt 0.003942 0.437334
vt 0.002219 0.452947
vt 0.000986 0.468606
vt 0.000246 0.484295
vt 0.000000 0.500001
vt 0.000246 0.515706
vt 0.000987 0.531396
vt 0.002219 0.547055
vt 0.003943 0.562667
vt 0.006156 0.578218
vt 0.008857 0.593691
vt 0.012042 0.609072
vt 0.015709 0.624346
vt 0.019853 0.639496
vt 0.024472 0.654509
vt 0.029560 0.669370
vt 0.035112 0.684063
vt 0.041123 0.698575
vt 0.047587 0.712891
vt 0.054497 0.726997
vt 0.061847 0.740878
vt 0.069629 0.754521
vt 0.077836 0.767914
vt 0.086460 0.781042
vt 0.095492 0.793893
vt 0.104923 0.806455
vt 0.114744 0.818712
vt 0.124945 0.830657
vt 0.135516 0.842274
vt 0.146447 0.853554
vt 0.157727 0.864485
vt 0.169344 0.875056
vt 0.181289 0.885257
vt 0.193547 0.895078
vt 0.206108 0.904509
vt 0.218959 0.913541
vt 0.232087 0.922165
vt 0.245480 0.930372
vt 0.259124 0.938154
vt 0.273005 0.945504
vt 0.287111 0.952414
vt 0.301427 0.958878
vt 0.315938 0.964888
vt 0.330632 0.970441
vt 0.345492 0.975529
vt 0.360505 0.980147
vt 0.375656 0.984292
vt 0.390929 0.987959
vt 0.406310 0.991144
vt 0.421784 0.993845
vt 0.437334 0.996058
vt 0.452947 0.997781
vt 0.468606 0.999014
vt 0.484296 0.999754
vn 0.0157 0.0376 -0.9992
vn 0.0471 0.0376 -0.9982
vn 0.0784 0.0376 -0.9962
vn 0.1097 0.0376 -0.9933
vn 0.1408 0.0376 -0.9893
vn 0.1718 0.0376 -0.9844
vn 0.2026 0.0376 -0.9785
vn 0.2333 0.0376 -0.9717
vn 0.2637 0.0376 -0.9639
vn 0.2938 0.0376 -0.9551
vn 0.3237 0.0376 -0.9454
vn 0.3532 0.0376 -0.9348
vn 0.3824 0.0376 -0.9232
vn 0.4112 0.0376 -0.9108
vn 0.4396 0.0376 -0.8974
vn 0.4676 0.0376 -0.8831
vn 0.4951 0.0376 -0.8680
vn 0.5221 0.0376 -0.8520
vn 0.5486 0.0376 -0.8352
vn 0.5746 0.0376 -0.8176
vn 0.6000 0.0376 -0.7991
vn 0.6248 0.0376 -0.7799
vn 0.6490 0.0376 -0.7599
vn 0.6725 0.0376 -0.7391
vn 0.6954 0.0376 -0.7176
vn 0.7176 0.0376 -0.6954
vn 0.7391 0.0376 -0.6725
vn 0.7599 0.0376 -0.6490
vn 0.7799 0.0376 -0.6248
vn 0.7991 0.0376 -0.6000
vn 0.8176 0.0376 -0.5746
vn 0.8352 0.0376 -0.5486
vn 0.8520 0.0376 -0.5221
vn 0.8680 0.0376 -0.4951
vn 0.8831 0.0376 -0.4676
vn 0.8974 0.0376 -0.4396
vn 0.9108 0.0376 -0.4112
vn 0.9232 0.0376 -0.3824
vn 0.9348 0.0376 -0.3532
vn 0.9454 0.0376 -0.3237
vn 0.9551 0.0376 -0.2938
vn 0.9639 0.0376 -0.2637
vn 0.9717 0.0376 -0.2333
vn 0.9785 0.0376 -0.2026
vn 0.9844 0.0376 -0.1718
vn 0.9893 0.0376 -0.1408
vn 0.9933 0.0376 -0.1097
vn 0.9962 0.0376 -0.0784
vn 0.9982 0.0376 -0.0471
vn 0.9992 0.0376 -0.0157
vn 0.9992 0.0376 0.0157
vn 0.9982 0.0376 0.0471
vn 0.9962 0.0376 0.0784
vn 0.9933 0.0376 0.1097
vn 0.9893 0.0376 0.1408
vn 0.9844 0.0376 0.1718
vn 0.9785 0.0376 0.2026
vn 0.9717 0.0376 0.2333
vn 0.9639 0.0376 0.2637
vn 0.9551 0.0376 0.2938
vn 0.9454 0.0376 0.3237
vn 0.9348 0.0376 0.3532
vn 0.9232 0.0376 0.3824
vn 0.9108 0.0376 0.4112
vn 0.8974 0.0376 0.4396
vn 0.8831 0.0376 0.4676
vn 0.8680 0.0376 0.4951
vn 0.8520 0.0376 0.5221
vn 0.8352 0.0376 0.5486
vn 0.8176 0.0376 0.5746
vn 0.7991 0.0376 0.6000
vn 0.7799 0.0376 0.6248
vn 0.7599 0.0376 0.6490
vn 0.7391 0.0376 0.6725
vn 0.7176 0.0376 0.6954
vn 0.6954 0.0376 0.7176
vn 0.6725 0.0376 0.7391
vn 0.6490 0.0376 0.7599
vn 0.6248 0.0376 0.7799
vn 0.6000 0.0376 0.7991
vn 0.5746 0.0376 0.8176
vn 0.5486 0.0376 0.8352
vn 0.5221 0.0376 0.8520
vn 0.4951 0.0376 0.8680
vn 0.4676 0.0376 0.8831
vn 0.4396 0.0376 0.8974
vn 0.4112 0.0376 0.9108
vn 0.3824 0.0376 0.9232
vn 0.3532 0.0376 0.9348
vn 0.3237 0.0376 0.9454
vn 0.2938 0.0376 0.9551
vn 0.2637 0.0376 0.9639
vn 0.2333 0.0376 0.9717
vn 0.2026 0.0376 0.9785
vn 0.1718 0.0376 0.9844
vn 0.1408 0.0376 0.9893
vn 0.1097 0.0376 0.9933
vn 0.0784 0.0376 0.9962
vn 0.0471 0.0376 0.9982
vn 0.0157 0.0376 0.9992
vn -0.0157 0.0376 0.9992
vn -0.0471 0.0376 0.9982
vn -0.0784 0.0376 0.9962
vn -0.1097 0.0376 0.9933
vn -0.1408 0.0376 0.9893
vn -0.1718 0.0376 0.9844
vn -0.2026 0.0376 0.9785
vn -0.2333 0.0376 0.9717
vn -0.2637 0.0376 0.9639
vn -0.2938 0.0376 0.9551
vn -0.3237 0.0376 0.9454
vn -0.3532 0.0376 0.9348
vn -0.3824 0.0376 0.9232
vn -0.4112 0.0376 0.9108
vn -0.4396 0.0376 0.8974
vn -0.4676 0.0376 0.8831
vn -0.4951 0.0376 0.8680
vn -0.5221 0.0376 0.8520
vn -0.5486 0.0376 0.8352
vn -0.5746 0.0376 0.8176
vn -0.6000 0.0376 0.7991
vn -0.6248 0.0376 0.7799
vn -0.6490 0.0376 0.7599
vn -0.6725 0.0376 0.7391
vn -0.6954 0.0376 0.7176
vn -0.7176 0.0376 0.6954
vn -0.7391 0.0376 0.6725
vn -0.7599 0.0376 0.6490
vn -0.7799 0.0376 0.6248
vn -0.7991 0.0376 0.6000
vn -0.8176 0.0376 0.5746
vn -0.8352 0.0376 0.5486
vn -0.8520 0.0376 0.5221
vn -0.8680 0.0376 0.4951
vn -0.8831 0.0376 0.4676
vn -0.8974 0.0376 0.4396
vn -0.9108 0.0376 0.4112
vn -0.9232 0.0376 0.3824
vn -0.9348 0.0376 0.3532
vn -0.9454 0.0376 0.3237
vn -0.9551 0.0376 0.2938
vn -0.9639 0.0376 0.2637
vn -0.9717 0.0376 0.2333
vn -0.9785 0.0376 0.2026
vn -0.9844 0.0376 0.1718
vn -0.9893 0.0376 0.1408
vn -0.9933 0.0376 0.1097
vn -0.9962 0.0376 0.0784
vn -0.9982 0.0376 0.0471
vn -0.9992 0.0376 0.0157
vn -0.9992 0.0376 -0.0157
vn -0.9982 0.0376 -0.0471
vn -0.9962 0.0376 -0.0784
vn -0.9933 0.0376 -0.1097
vn -0.9893 0.0376 -0.1408
vn -0.9844 0.0376 -0.1718
vn -0.9785 0.0376 -0.2026
vn -0.9717 0.0376 -0.2333
vn -0.9639 0.0376 -0.2637
vn -0.9551 0.0376 -0.2938
vn -0.9454 0.0376 -0.3237
vn -0.9348 0.0376 -0.3532
vn -0.9232 0.0376 -0.3824
vn -0.9108 0.0376 -0.4112
vn -0.8974 0.0376 -0.4396
vn -0.8831 0.0376 -0.4676
vn -0.8680 0.0376 -0.4951
vn -0.8520 0.0376 -0.5221
vn -0.8352 0.0376 -0.5486
vn -0.8176 0.0376 -0.5746
vn -0.7991 0.0376 -0.6000
vn -0.7799 0.0376 -0.6248
vn -0.7599 0.0376 -0.6490
vn -0.7391 0.0376 -0.6725
vn -0.7176 0.0376 -0.6954
vn -0.6954 0.0376 -0.7176
vn -0.6725 0.0376 -0.7391
vn -0.6490 0.0376 -0.7599
vn -0.6248 0.0376 -0.7799
vn -0.6000 0.0376 -0.7991
vn -0.5746 0.0376 -0.8176
vn -0.5486 0.0376 -0.8352
vn -0.5221 0.0376 -0.8520
vn -0.4951 0.0376 -0.8680
vn -0.4676 0.0376 -0.8831
vn -0.4396 0.0376 -0.8974
vn -0.4112 0.0376 -0.9108
vn -0.3824 0.0376 -0.9232
vn -0.3532 0.0376 -0.9348
vn -0.3237 0.0376 -0.9454
vn -0.2938 0.0376 -0.9551
vn -0.2637 0.0376 -0.9639
vn -0.2333 0.0376 -0.9717
vn -0.2026 0.0376 -0.9785
vn -0.1718 0.0376 -0.9844
vn -0.1408 0.0376 -0.9893
vn -0.1097 0.0376 -0.9933
vn -0.0784 0.0376 -0.9962
vn -0.0471 0.0376 -0.9982
vn -0.0157 0.0376 -0.9992
usemtl None
s off
f 1/1/1 137/2/1 2/3/1
f 2/3/2 137/2/2 3/4/2
f 3/4/3 137/2/3 4/5/3
f 4/5/4 137/2/4 5/6/4
f 5/6/5 137/2/5 6/7/5
f 6/7/6 137/2/6 7/8/6
f 7/8/7 137/2/7 8/9/7
f 8/9/8 137/2/8 9/10/8
f 9/10/9 137/2/9 10/11/9
f 10/11/10 137/2/10 11/12/10
f 11/12/11 137/2/11 12/13/11
f 12/13/12 137/2/12 13/14/12
f 13/14/13 137/2/13 14/15/13
f 14/15/14 137/2/14 15/16/14
f 15/16/15 137/2/15 16/17/15
f 16/17/16 137/2/16 17/18/16
f 17/18/17 137/2/17 18/19/17
f 18/19/18 137/2/18 19/20/18
f 19/20/19 137/2/19 20/21/19
f 20/21/20 137/2/20 21/22/20
f 21/22/21 137/2/21 22/23/21
f 22/23/22 137/2/22 23/24/22
f 23/24/23 137/2/23 24/25/23
f 24/25/24 137/2/24 25/26/24
f 25/26/25 137/2/25 26/27/25
f 26/27/26 137/2/26 27/28/26
f 27/28/27 137/2/27 28/29/27
f 28/29/28 137/2/28 29/30/28
f 29/30/29 137/2/29 30/31/29
f 30/31/30 137/2/30 31/32/30
f 31/32/31 137/2/31 32/33/31
f 32/33/32 137/2/32 33/34/32
f 33/34/33 137/2/33 34/35/33
f 34/35/34 137/2/34 35/36/34
f 35/36/35 137/2/35 36/37/35
f 36/37/36 137/2/36 37/38/36
f 37/38/37 137/2/37 38/39/37
f 38/39/38 137/2/38 39/40/38
f 39/40/39 137/2/39 40/41/39
f 40/41/40 137/2/40 41/42/40
f 41/42/41 137/2/41 42/43/41
f 42/43/42 137/2/42 43/44/42
f 43/44/43 137/2/43 44/45/43
f 44/45/44 137/2/44 45/46/44
f 45/46/45 137/2/45 46/47/45
f 46/47/46 137/2/46 47/48/46
f 47/48/47 137/2/47 48/49/47
f 48/49/48 137/2/48 49/50/48
f 49/50/49 137/2/49 50/51/49
f 50/51/50 137/2/50 51/52/50
f 51/52/51 137/2/51 52/53/51
f 52/53/52 137/2/52 53/54/52
f 53/54/53 137/2/53 54/55/53
f 54/55/54 137/2/54 55/56/54
f 55/56/55 137/2/55 56/57/55
f 56/57/56 137/2/56 57/58/56
f 57/58/57 137/2/57 58/59/57
f 58/59/58 137/2/58 59/60/58
f 59/60/59 137/2/59 60/61/59
f 60/61/60 137/2/60 61/62/60
f 61/62/61 137/2/61 62/63/61
f 62/63/62 137/2/62 63/64/62
f 63/64/63 137/2/63 64/65/63
f 64/65/64 137/2/64 65/66/64
f 65/66/65 137/2/65 66/67/65
f 66/67/66 137/2/66 67/68/66
f 67/68/67 137/2/67 68/69/67
f 68/69/68 137/2/68 69/70/68
f 69/70/69 137/2/69 70/71/69
f 70/71/70 137/2/70 71/72/70
f 71/72/71 137/2/71 72/73/71
f 72/73/72 137/2/72 73/74/72
f 73/74/73 137/2/73 74/75/73
f 74/75/74 137/2/74 75/76/74
f 75/76/75 137/2/75 76/77/75
f 76/77/76 137/2/76 77/78/76
f 77/78/77 137/2/77 78/79/77
f 78/79/78 137/2/78 79/80/78
f 79/80/79 137/2/79 80/81/79
f 80/81/80 137/2/80 81/82/80
f 81/82/81 137/2/81 82/83/81
f 82/83/82 137/2/82 83/84/82
f 83/84/83 137/2/83 84/85/83
f 84/85/84 137/2/84 85/86/84
f 85/86/85 137/2/85 86/87/85
f 86/87/86 137/2/86 87/88/86
f 87/88/87 137/2/87 88/89/87
f 88/89/88 137/2/88 89/90/88
f 89/90/89 137/2/89 90/91/89
f 90/91/90 137/2/90 91/92/90
f 91/92/91 137/2/91 92/93/91
f 92/93/92 137/2/92 93/94/92
f 93/94/93 137/2/93 94/95/93
f 94/95/94 137/2/94 95/96/94
f 95/96/95 137/2/95 96/97/95
f 96/97/96 137/2/96 97/98/96
f 97/98/97 137/2/97 98/99/97
f 98/99/98 137/2/98 99/100/98
f 99/100/99 137/2/99 100/101/99
f 100/101/100 137/2/100 101/102/100
f 101/102/101 137/2/101 102/103/101
f 102/103/102 137/2/102 103/104/102
f 103/104/103 137/2/103 104/105/103
f 104/105/104 137/2/104 105/106/104
f 105/106/105 137/2/105 106/107/105
f 106/107/106 137/2/106 107/108/106
f 107/108/107 137/2/107 108/109/107
f 108/109/108 137/2/108 109/110/108
f 109/110/109 137/2/109 110/111/109
f 110/111/110 137/2/110 111/112/110
f 111/112/111 137/2/111 112/113/111
f 112/113/112 137/2/112 113/114/112
f 113/114/113 137/2/113 114/115/113
f 114/115/114 137/2/114 115/116/114
f 115/116/115 137/2/115 116/117/115
f 116/117/116 137/2/116 117/118/116
f 117/118/117 137/2/117 118/119/117
f 118/119/118 137/2/118 119/120/118
f 119/120/119 137/2/119 120/121/119
f 120/121/120 137/2/120 121/122/120
f 121/122/121 137/2/121 122/123/121
f 122/123/122 137/2/122 123/124/122
f 123/124/123 137/2/123 124/125/123
f 124/125/124 137/2/124 125/126/124
f 125/126/125 137/2/125 126/127/125
f 126/127/126 137/2/126 127/128/126
f 127/128/127 137/2/127 128/129/127
f 128/129/128 137/2/128 129/130/128
f 129/130/129 137/2/129 130/131/129
f 130/131/130 137/2/130 131/132/130
f 131/132/131 137/2/131 132/133/131
f 132/133/132 137/2/132 133/134/132
f 133/134/133 137/2/133 134/135/133
f 134/135/134 137/2/134 135/136/134
f 135/136/135 137/2/135 136/137/135
f 136/137/136 137/2/136 138/138/136
f 138/138/137 137/2/137 139/139/137
f 139/139/138 137/2/138 140/140/138
f 140/140/139 137/2/139 141/141/139
f 141/141/140 137/2/140 142/142/140
f 142/142/141 137/2/141 143/143/141
f 143/143/142 137/2/142 144/144/142
f 144/144/143 137/2/143 145/145/143
f 145/145/144 137/2/144 146/146/144
f 146/146/145 137/2/145 147/147/145
f 147/147/146 137/2/146 148/148/146
f 148/148/147 137/2/147 149/149/147
f 149/149/148 137/2/148 150/150/148
f 150/150/149 137/2/149 151/151/149
f 151/151/150 137/2/150 152/152/150
f 152/152/151 137/2/151 153/153/151
f 153/153/152 137/2/152 154/154/152
f 154/154/153 137/2/153 155/155/153
f 155/155/154 137/2/154 156/156/154
f 156/156/155 137/2/155 157/157/155
f 157/157/156 137/2/156 158/158/156
f 158/158/157 137/2/157 159/159/157
f 159/159/158 137/2/158 160/160/158
f 160/160/159 137/2/159 161/161/159
f 161/161/160 137/2/160 162/162/160
f 162/162/161 137/2/161 163/163/161
f 163/163/162 137/2/162 164/164/162
f 164/164/163 137/2/163 165/165/163
f 165/165/164 137/2/164 166/166/164
f 166/166/165 137/2/165 167/167/165
f 167/167/166 137/2/166 168/168/166
f 168/168/167 137/2/167 169/169/167
f 169/169/168 137/2/168 170/170/168
f 170/170/169 137/2/169 171/171/169
f 171/171/170 137/2/170 172/172/170
f 172/172/171 137/2/171 173/173/171
f 173/173/172 137/2/172 174/174/172
f 174/174/173 137/2/173 175/175/173
f 175/175/174 137/2/174 176/176/174
f 176/176/175 137/2/175 177/177/175
f 177/177/176 137/2/176 178/178/176
f 178/178/177 137/2/177 179/179/177
f 179/179/178 137/2/178 180/180/178
f 180/180/179 137/2/179 181/181/179
f 181/181/180 137/2/180 182/182/180
f 182/182/181 137/2/181 183/183/181
f 183/183/182 137/2/182 184/184/182
f 184/184/183 137/2/183 185/185/183
f 185/185/184 137/2/184 186/186/184
f 186/186/185 137/2/185 187/187/185
f 187/187/186 137/2/186 188/188/186
f 188/188/187 137/2/187 189/189/187
f 189/189/188 137/2/188 190/190/188
f 190/190/189 137/2/189 191/191/189
f 191/191/190 137/2/190 192/192/190
f 192/192/191 137/2/191 193/193/191
f 193/193/192 137/2/192 194/194/192
f 194/194/193 137/2/193 195/195/193
f 195/195/194 137/2/194 196/196/194
f 196/196/195 137/2/195 197/197/195
f 197/197/196 137/2/196 198/198/196
f 198/198/197 137/2/197 199/199/197
f 199/199/198 137/2/198 200/200/198
f 200/200/199 137/2/199 201/201/199
f 201/201/200 137/2/200 1/1/200
